<svg width="19" height="19" viewBox="0 0 19 19" fill="none" xmlns="http://www.w3.org/2000/svg">
<path d="M13.0605 0.312714C13.2493 0.312714 13.4369 0.349827 13.6113 0.422089C13.7855 0.494305 13.9438 0.600275 14.0771 0.733612L18.2666 4.92307C18.4001 5.05655 18.5068 5.21446 18.5791 5.38889C18.6514 5.56331 18.6885 5.75086 18.6885 5.93967C18.6884 6.1283 18.6513 6.3152 18.5791 6.48947C18.5068 6.6639 18.4001 6.82278 18.2666 6.95627L7.66016 17.5627H17.25C17.4323 17.5627 17.6074 17.635 17.7363 17.7639C17.8652 17.8928 17.9375 18.0679 17.9375 18.2502C17.9374 18.4325 17.8652 18.6077 17.7363 18.7365C17.6074 18.8654 17.4323 18.9377 17.25 18.9377H1.5C1.11881 18.9377 0.75297 18.7863 0.483398 18.5168C0.213868 18.2473 0.0625602 17.8814 0.0625 17.5002V13.3098C0.0619391 13.1212 0.098661 12.9342 0.170898 12.76C0.243197 12.5856 0.349413 12.4271 0.483398 12.2942H0.484375L12.0439 0.733612C12.1774 0.600093 12.3363 0.49435 12.5107 0.422089C12.6851 0.349897 12.8719 0.312745 13.0605 0.312714ZM1.4375 13.2844V17.5627H5.71582L14.0283 9.25021L9.75 4.97189L1.4375 13.2844ZM10.7227 4.00021L14.9561 8.23361L15 8.27853L15.0439 8.23361L17.2939 5.98361L17.3389 5.93967L17.2939 5.89572L13.1055 1.70627L13.0615 1.66135L10.7227 4.00021Z" fill="#95DE64" stroke="#959595" stroke-width="0.125"/>
</svg>
