<svg width="52" height="50" viewBox="0 0 52 50" fill="none" xmlns="http://www.w3.org/2000/svg">
<path d="M51.6617 25C51.6619 29.8342 50.2463 34.5625 47.5898 38.6014C44.9333 42.6402 41.1522 45.8127 36.7132 47.7271C32.2743 49.6415 27.3719 50.2141 22.6113 49.3741C17.8506 48.5342 13.4402 46.3184 9.92448 43.0005C9.72743 42.8143 9.569 42.5911 9.45821 42.3436C9.34742 42.0962 9.28646 41.8293 9.2788 41.5583C9.27114 41.2873 9.31693 41.0175 9.41356 40.7642C9.51019 40.5109 9.65577 40.2791 9.84198 40.082C10.218 39.6841 10.7368 39.4518 11.2841 39.4364C11.5551 39.4287 11.825 39.4745 12.0783 39.5711C12.3316 39.6678 12.5634 39.8133 12.7604 39.9995C15.7091 42.7814 19.4122 44.6326 23.407 45.3218C27.4018 46.0111 31.5112 45.5079 35.2216 43.875C38.932 42.2421 42.079 39.552 44.2692 36.1408C46.4595 32.7296 47.596 28.7486 47.5366 24.6952C47.4773 20.6418 46.2248 16.6958 43.9356 13.3502C41.6464 10.0046 38.422 7.40779 34.6654 5.88423C30.9087 4.36067 26.7864 3.97793 22.8135 4.78385C18.8406 5.58976 15.1933 7.54858 12.3273 10.4156C11.4172 11.3359 10.5613 12.2409 9.72854 13.1406L13.9335 17.3533C14.2222 17.6417 14.4189 18.0094 14.4986 18.4097C14.5784 18.81 14.5375 19.2249 14.3813 19.602C14.225 19.9791 13.9604 20.3013 13.621 20.5279C13.2815 20.7545 12.8824 20.8753 12.4742 20.875H2.16174C1.61473 20.875 1.09013 20.6577 0.703336 20.2709C0.316542 19.8841 0.0992438 19.3595 0.0992438 18.8125V8.50001C0.0989226 8.09185 0.219712 7.69277 0.446321 7.35329C0.672929 7.01382 0.995167 6.74921 1.37224 6.59297C1.74931 6.43673 2.16426 6.39589 2.56456 6.4756C2.96486 6.55532 3.33251 6.75201 3.62096 7.04079L6.80237 10.2273C7.63252 9.32758 8.48846 8.42266 9.39596 7.50743C12.856 4.04147 17.2666 1.67994 22.0694 0.721749C26.8722 -0.236441 31.8513 0.251784 36.3765 2.12463C40.9017 3.99748 44.7695 7.17075 47.4904 11.2428C50.2114 15.3148 51.663 20.1026 51.6617 25ZM26.9117 10.5625C26.3647 10.5625 25.8401 10.7798 25.4533 11.1666C25.0665 11.5534 24.8492 12.078 24.8492 12.625V25C24.8491 25.3561 24.9412 25.7061 25.1165 26.016C25.2918 26.326 25.5443 26.5852 25.8496 26.7686L36.1621 32.9561C36.3943 33.0956 36.6518 33.188 36.9197 33.228C37.1877 33.2679 37.4609 33.2548 37.7237 33.1892C37.9866 33.1236 38.234 33.0068 38.4517 32.8457C38.6695 32.6845 38.8533 32.4819 38.9928 32.2497C39.1323 32.0174 39.2247 31.76 39.2647 31.492C39.3047 31.2241 39.2915 30.9509 39.2259 30.688C39.1603 30.4251 39.0436 30.1778 38.8824 29.96C38.7212 29.7423 38.5187 29.5584 38.2864 29.4189L28.9742 23.8321V12.625C28.9742 12.078 28.7569 11.5534 28.3702 11.1666C27.9834 10.7798 27.4588 10.5625 26.9117 10.5625Z" fill="#C41D7F"/>
</svg>
