<svg width="61" height="56" viewBox="0 0 61 56" fill="none" xmlns="http://www.w3.org/2000/svg">
<path d="M2.09928 55.9998C2.78547 55.9998 3.34174 55.4436 3.34174 54.7574C3.34174 54.0712 2.78547 53.5149 2.09928 53.5149C1.41308 53.5149 0.856812 54.0712 0.856812 54.7574C0.856812 55.4436 1.41308 55.9998 2.09928 55.9998Z" fill="#DE6944"/>
<path d="M2.09928 45.262C2.78547 45.262 3.34174 44.7058 3.34174 44.0196C3.34174 43.3334 2.78547 42.7771 2.09928 42.7771C1.41308 42.7771 0.856812 43.3334 0.856812 44.0196C0.856812 44.7058 1.41308 45.262 2.09928 45.262Z" fill="#DE6944"/>
<path d="M2.09928 34.5228C2.78547 34.5228 3.34174 33.9665 3.34174 33.2803C3.34174 32.5941 2.78547 32.0378 2.09928 32.0378C1.41308 32.0378 0.856812 32.5941 0.856812 33.2803C0.856812 33.9665 1.41308 34.5228 2.09928 34.5228Z" fill="#DE6944"/>
<path d="M2.09928 23.8731C2.78547 23.8731 3.34174 23.3168 3.34174 22.6306C3.34174 21.9445 2.78547 21.3882 2.09928 21.3882C1.41308 21.3882 0.856812 21.9445 0.856812 22.6306C0.856812 23.3168 1.41308 23.8731 2.09928 23.8731Z" fill="#DE6944"/>
<path d="M2.09928 13.1351C2.78547 13.1351 3.34174 12.5788 3.34174 11.8926C3.34174 11.2064 2.78547 10.6501 2.09928 10.6501C1.41308 10.6501 0.856812 11.2064 0.856812 11.8926C0.856812 12.5788 1.41308 13.1351 2.09928 13.1351Z" fill="#DE6944"/>
<path d="M2.10068 2.48566C2.78687 2.48566 3.34315 1.92939 3.34315 1.2432C3.34315 0.557003 2.78687 0.000732422 2.10068 0.000732422C1.41449 0.000732422 0.858215 0.557003 0.858215 1.2432C0.858215 1.92939 1.41449 2.48566 2.10068 2.48566Z" fill="#DE6944"/>
<path d="M59.6095 55.9991C60.2957 55.9991 60.8519 55.4428 60.8519 54.7566C60.8519 54.0704 60.2957 53.5142 59.6095 53.5142C58.9233 53.5142 58.367 54.0704 58.367 54.7566C58.367 55.4428 58.9233 55.9991 59.6095 55.9991Z" fill="#DE6944"/>
<path d="M59.6095 45.2613C60.2957 45.2613 60.8519 44.705 60.8519 44.0188C60.8519 43.3326 60.2957 42.7764 59.6095 42.7764C58.9233 42.7764 58.367 43.3326 58.367 44.0188C58.367 44.705 58.9233 45.2613 59.6095 45.2613Z" fill="#DE6944"/>
<path d="M59.6095 34.522C60.2957 34.522 60.8519 33.9658 60.8519 33.2796C60.8519 32.5934 60.2957 32.0371 59.6095 32.0371C58.9233 32.0371 58.367 32.5934 58.367 33.2796C58.367 33.9658 58.9233 34.522 59.6095 34.522Z" fill="#DE6944"/>
<path d="M59.6095 23.8724C60.2957 23.8724 60.8519 23.3161 60.8519 22.6299C60.8519 21.9437 60.2957 21.3875 59.6095 21.3875C58.9233 21.3875 58.367 21.9437 58.367 22.6299C58.367 23.3161 58.9233 23.8724 59.6095 23.8724Z" fill="#DE6944"/>
<path d="M59.6095 13.1343C60.2957 13.1343 60.8519 12.5781 60.8519 11.8919C60.8519 11.2057 60.2957 10.6494 59.6095 10.6494C58.9233 10.6494 58.367 11.2057 58.367 11.8919C58.367 12.5781 58.9233 13.1343 59.6095 13.1343Z" fill="#DE6944"/>
<path d="M59.6097 2.48493C60.2959 2.48493 60.8522 1.92866 60.8522 1.24246C60.8522 0.55627 60.2959 0 59.6097 0C58.9235 0 58.3672 0.55627 58.3672 1.24246C58.3672 1.92866 58.9235 2.48493 59.6097 2.48493Z" fill="#DE6944"/>
<path d="M48.161 55.9991C48.8472 55.9991 49.4035 55.4428 49.4035 54.7566C49.4035 54.0704 48.8472 53.5142 48.161 53.5142C47.4748 53.5142 46.9186 54.0704 46.9186 54.7566C46.9186 55.4428 47.4748 55.9991 48.161 55.9991Z" fill="#DE6944"/>
<path d="M48.161 45.2613C48.8472 45.2613 49.4035 44.705 49.4035 44.0188C49.4035 43.3326 48.8472 42.7764 48.161 42.7764C47.4748 42.7764 46.9186 43.3326 46.9186 44.0188C46.9186 44.705 47.4748 45.2613 48.161 45.2613Z" fill="#DE6944"/>
<path d="M48.161 34.522C48.8472 34.522 49.4035 33.9658 49.4035 33.2796C49.4035 32.5934 48.8472 32.0371 48.161 32.0371C47.4748 32.0371 46.9186 32.5934 46.9186 33.2796C46.9186 33.9658 47.4748 34.522 48.161 34.522Z" fill="#DE6944"/>
<path d="M48.161 23.8724C48.8472 23.8724 49.4035 23.3161 49.4035 22.6299C49.4035 21.9437 48.8472 21.3875 48.161 21.3875C47.4748 21.3875 46.9186 21.9437 46.9186 22.6299C46.9186 23.3161 47.4748 23.8724 48.161 23.8724Z" fill="#DE6944"/>
<path d="M48.161 13.1343C48.8472 13.1343 49.4035 12.5781 49.4035 11.8919C49.4035 11.2057 48.8472 10.6494 48.161 10.6494C47.4748 10.6494 46.9186 11.2057 46.9186 11.8919C46.9186 12.5781 47.4748 13.1343 48.161 13.1343Z" fill="#DE6944"/>
<path d="M48.1606 2.48493C48.8467 2.48493 49.403 1.92866 49.403 1.24246C49.403 0.55627 48.8467 0 48.1606 0C47.4744 0 46.9181 0.55627 46.9181 1.24246C46.9181 1.92866 47.4744 2.48493 48.1606 2.48493Z" fill="#DE6944"/>
<path d="M36.6239 55.9991C37.3101 55.9991 37.8663 55.4428 37.8663 54.7566C37.8663 54.0704 37.3101 53.5142 36.6239 53.5142C35.9377 53.5142 35.3814 54.0704 35.3814 54.7566C35.3814 55.4428 35.9377 55.9991 36.6239 55.9991Z" fill="#DE6944"/>
<path d="M36.6239 45.2613C37.3101 45.2613 37.8663 44.705 37.8663 44.0188C37.8663 43.3326 37.3101 42.7764 36.6239 42.7764C35.9377 42.7764 35.3814 43.3326 35.3814 44.0188C35.3814 44.705 35.9377 45.2613 36.6239 45.2613Z" fill="#DE6944"/>
<path d="M36.6239 34.522C37.3101 34.522 37.8663 33.9658 37.8663 33.2796C37.8663 32.5934 37.3101 32.0371 36.6239 32.0371C35.9377 32.0371 35.3814 32.5934 35.3814 33.2796C35.3814 33.9658 35.9377 34.522 36.6239 34.522Z" fill="#DE6944"/>
<path d="M36.6239 23.8724C37.3101 23.8724 37.8663 23.3161 37.8663 22.6299C37.8663 21.9437 37.3101 21.3875 36.6239 21.3875C35.9377 21.3875 35.3814 21.9437 35.3814 22.6299C35.3814 23.3161 35.9377 23.8724 36.6239 23.8724Z" fill="#DE6944"/>
<path d="M36.6239 13.1343C37.3101 13.1343 37.8663 12.5781 37.8663 11.8919C37.8663 11.2057 37.3101 10.6494 36.6239 10.6494C35.9377 10.6494 35.3814 11.2057 35.3814 11.8919C35.3814 12.5781 35.9377 13.1343 36.6239 13.1343Z" fill="#DE6944"/>
<path d="M36.6234 2.48493C37.3096 2.48493 37.8658 1.92866 37.8658 1.24246C37.8658 0.55627 37.3096 0 36.6234 0C35.9372 0 35.3809 0.55627 35.3809 1.24246C35.3809 1.92866 35.9372 2.48493 36.6234 2.48493Z" fill="#DE6944"/>
<path d="M25.0868 55.9991C25.773 55.9991 26.3293 55.4428 26.3293 54.7566C26.3293 54.0704 25.773 53.5142 25.0868 53.5142C24.4006 53.5142 23.8444 54.0704 23.8444 54.7566C23.8444 55.4428 24.4006 55.9991 25.0868 55.9991Z" fill="#DE6944"/>
<path d="M25.0868 45.2613C25.773 45.2613 26.3293 44.705 26.3293 44.0188C26.3293 43.3326 25.773 42.7764 25.0868 42.7764C24.4006 42.7764 23.8444 43.3326 23.8444 44.0188C23.8444 44.705 24.4006 45.2613 25.0868 45.2613Z" fill="#DE6944"/>
<path d="M25.0868 34.522C25.773 34.522 26.3293 33.9658 26.3293 33.2796C26.3293 32.5934 25.773 32.0371 25.0868 32.0371C24.4006 32.0371 23.8444 32.5934 23.8444 33.2796C23.8444 33.9658 24.4006 34.522 25.0868 34.522Z" fill="#DE6944"/>
<path d="M25.0868 23.8724C25.773 23.8724 26.3293 23.3161 26.3293 22.6299C26.3293 21.9437 25.773 21.3875 25.0868 21.3875C24.4006 21.3875 23.8444 21.9437 23.8444 22.6299C23.8444 23.3161 24.4006 23.8724 25.0868 23.8724Z" fill="#DE6944"/>
<path d="M25.0868 13.1343C25.773 13.1343 26.3293 12.5781 26.3293 11.8919C26.3293 11.2057 25.773 10.6494 25.0868 10.6494C24.4006 10.6494 23.8444 11.2057 23.8444 11.8919C23.8444 12.5781 24.4006 13.1343 25.0868 13.1343Z" fill="#DE6944"/>
<path d="M25.0862 2.48493C25.7724 2.48493 26.3287 1.92866 26.3287 1.24246C26.3287 0.55627 25.7724 0 25.0862 0C24.4 0 23.8438 0.55627 23.8438 1.24246C23.8438 1.92866 24.4 2.48493 25.0862 2.48493Z" fill="#DE6944"/>
<path d="M13.5497 55.9991C14.2358 55.9991 14.7921 55.4428 14.7921 54.7566C14.7921 54.0704 14.2358 53.5142 13.5497 53.5142C12.8635 53.5142 12.3072 54.0704 12.3072 54.7566C12.3072 55.4428 12.8635 55.9991 13.5497 55.9991Z" fill="#DE6944"/>
<path d="M13.5497 45.2613C14.2358 45.2613 14.7921 44.705 14.7921 44.0188C14.7921 43.3326 14.2358 42.7764 13.5497 42.7764C12.8635 42.7764 12.3072 43.3326 12.3072 44.0188C12.3072 44.705 12.8635 45.2613 13.5497 45.2613Z" fill="#DE6944"/>
<path d="M13.5497 34.522C14.2358 34.522 14.7921 33.9658 14.7921 33.2796C14.7921 32.5934 14.2358 32.0371 13.5497 32.0371C12.8635 32.0371 12.3072 32.5934 12.3072 33.2796C12.3072 33.9658 12.8635 34.522 13.5497 34.522Z" fill="#DE6944"/>
<path d="M13.5497 23.8724C14.2358 23.8724 14.7921 23.3161 14.7921 22.6299C14.7921 21.9437 14.2358 21.3875 13.5497 21.3875C12.8635 21.3875 12.3072 21.9437 12.3072 22.6299C12.3072 23.3161 12.8635 23.8724 13.5497 23.8724Z" fill="#DE6944"/>
<path d="M13.5497 13.1343C14.2358 13.1343 14.7921 12.5781 14.7921 11.8919C14.7921 11.2057 14.2358 10.6494 13.5497 10.6494C12.8635 10.6494 12.3072 11.2057 12.3072 11.8919C12.3072 12.5781 12.8635 13.1343 13.5497 13.1343Z" fill="#DE6944"/>
<path d="M13.549 2.48493C14.2352 2.48493 14.7915 1.92866 14.7915 1.24246C14.7915 0.55627 14.2352 0 13.549 0C12.8629 0 12.3066 0.55627 12.3066 1.24246C12.3066 1.92866 12.8629 2.48493 13.549 2.48493Z" fill="#DE6944"/>
</svg>
