<svg width="50" height="50" viewBox="0 0 50 50" fill="none" xmlns="http://www.w3.org/2000/svg">
<path d="M4.19849 1.75H45.4485C46.1447 1.75 46.8126 2.02627 47.3049 2.51855C47.7972 3.01084 48.0735 3.67881 48.0735 4.375V45.625C48.0735 46.3212 47.7972 46.9892 47.3049 47.4814C46.8126 47.9737 46.1447 48.25 45.4485 48.25H4.19849C3.50229 48.25 2.83432 47.9737 2.34204 47.4814C1.84976 46.9892 1.57349 46.3212 1.57349 45.625V4.375C1.57349 3.67881 1.84976 3.01084 2.34204 2.51855C2.83432 2.02627 3.50229 1.75 4.19849 1.75ZM35.136 15.249C34.6681 15.249 34.205 15.3415 33.7727 15.5205C33.3403 15.6996 32.9474 15.9621 32.6165 16.293L20.6985 28.2119L17.0315 24.543H17.0305C16.3622 23.8747 15.4561 23.499 14.511 23.499C13.5659 23.499 12.6598 23.8747 11.9915 24.543C11.3231 25.2113 10.9475 26.1174 10.9475 27.0625L10.9514 27.2393C10.9951 28.12 11.3649 28.9555 11.9915 29.582L18.178 35.7686V35.7695C18.5088 36.1007 18.9018 36.3637 19.3342 36.543C19.7667 36.7222 20.2304 36.8145 20.6985 36.8145C21.1666 36.8145 21.6303 36.7222 22.0627 36.543C22.4952 36.3637 22.8872 36.0997 23.218 35.7686L37.6555 21.332C37.9864 21.0011 38.2489 20.6081 38.428 20.1758C38.607 19.7435 38.6995 19.2804 38.6995 18.8125L38.6956 18.6377C38.6755 18.2295 38.5847 17.8276 38.428 17.4492C38.2489 17.0169 37.9864 16.6239 37.6555 16.293C37.3246 15.9621 36.9316 15.6996 36.4993 15.5205C36.067 15.3415 35.6039 15.249 35.136 15.249Z" stroke="#08979C" stroke-width="3"/>
</svg>
