<svg width="38" height="54" viewBox="0 0 38 54" fill="none" xmlns="http://www.w3.org/2000/svg">
<path d="M37.5625 13.5009V4.3125C37.5625 3.21848 37.1279 2.16927 36.3543 1.39568C35.5807 0.622097 34.5315 0.1875 33.4375 0.1875H4.5625C3.46848 0.1875 2.41927 0.622097 1.64568 1.39568C0.872097 2.16927 0.4375 3.21848 0.4375 4.3125V13.5938C0.438893 14.2339 0.588604 14.865 0.874884 15.4376C1.16116 16.0101 1.57622 16.5086 2.0875 16.8938L15.5634 27L2.0875 37.1062C1.57622 37.4914 1.16116 37.9899 0.874884 38.5624C0.588604 39.135 0.438893 39.7661 0.4375 40.4062V49.6875C0.4375 50.7815 0.872097 51.8307 1.64568 52.6043C2.41927 53.3779 3.46848 53.8125 4.5625 53.8125H33.4375C34.5315 53.8125 35.5807 53.3779 36.3543 52.6043C37.1279 51.8307 37.5625 50.7815 37.5625 49.6875V40.4991C37.561 39.8614 37.4126 39.2326 37.1286 38.6616C36.8447 38.0907 36.433 37.5928 35.9254 37.2068L22.4212 27L35.9254 16.7932C36.433 16.4072 36.8447 15.9093 37.1286 15.3384C37.4126 14.7674 37.561 14.1386 37.5625 13.5009ZM33.4375 40.4991V49.6875H4.5625V40.4062L16.9375 31.125V37.3125C16.9375 37.8595 17.1548 38.3841 17.5416 38.7709C17.9284 39.1577 18.453 39.375 19 39.375C19.547 39.375 20.0716 39.1577 20.4584 38.7709C20.8452 38.3841 21.0625 37.8595 21.0625 37.3125V31.1456L33.4375 40.4991ZM33.4375 13.5009L31.9499 14.625H5.93664L4.5625 13.5938V4.3125H33.4375V13.5009Z" fill="#096DD9"/>
</svg>
