<svg width="45" height="45" viewBox="0 0 45 45" fill="none" xmlns="http://www.w3.org/2000/svg">
<path d="M22.5 4.21875C18.8843 4.21875 15.3498 5.29093 12.3435 7.2997C9.33715 9.30847 6.994 12.1636 5.61034 15.5041C4.22667 18.8445 3.86464 22.5203 4.57003 26.0665C5.27541 29.6127 7.01653 32.8701 9.57321 35.4268C12.1299 37.9835 15.3873 39.7246 18.9335 40.43C22.4797 41.1354 26.1555 40.7733 29.4959 39.3897C32.8364 38.006 35.6915 35.6629 37.7003 32.6565C39.7091 29.6502 40.7813 26.1157 40.7813 22.5C40.7761 17.6531 38.8484 13.0061 35.4212 9.57886C31.9939 6.15157 27.3469 4.22387 22.5 4.21875ZM13.0219 34.7168C14.0392 33.1258 15.4406 31.8164 17.0971 30.9095C18.7535 30.0025 20.6115 29.5271 22.5 29.5271C24.3885 29.5271 26.2465 30.0025 27.903 30.9095C29.5594 31.8164 30.9608 33.1258 31.9781 34.7168C29.2682 36.8244 25.9331 37.9686 22.5 37.9686C19.067 37.9686 15.7318 36.8244 13.0219 34.7168ZM16.875 21.0938C16.875 19.9812 17.2049 18.8937 17.823 17.9687C18.4411 17.0436 19.3196 16.3227 20.3474 15.8969C21.3752 15.4712 22.5062 15.3598 23.5974 15.5768C24.6885 15.7939 25.6908 16.3296 26.4775 17.1163C27.2642 17.9029 27.7999 18.9052 28.0169 19.9964C28.234 21.0875 28.1226 22.2185 27.6968 23.2463C27.2711 24.2742 26.5501 25.1527 25.6251 25.7708C24.7001 26.3888 23.6125 26.7188 22.5 26.7188C21.0082 26.7188 19.5774 26.1261 18.5225 25.0712C17.4676 24.0163 16.875 22.5856 16.875 21.0938ZM34.0594 32.7674C32.491 30.4947 30.2857 28.7364 27.7207 27.7137C29.0985 26.6285 30.1039 25.1409 30.5971 23.4578C31.0902 21.7747 31.0467 19.9798 30.4724 18.3226C29.8982 16.6655 28.8218 15.2284 27.3929 14.2114C25.9641 13.1943 24.2539 12.6478 22.5 12.6478C20.7462 12.6478 19.0359 13.1943 17.6071 14.2114C16.1782 15.2284 15.1019 16.6655 14.5276 18.3226C13.9534 19.9798 13.9098 21.7747 14.4029 23.4578C14.8961 25.1409 15.9015 26.6285 17.2793 27.7137C14.7143 28.7364 12.509 30.4947 10.9406 32.7674C8.95882 30.5388 7.66349 27.7848 7.21063 24.837C6.75777 21.8893 7.16669 18.8734 8.38814 16.1527C9.6096 13.432 11.5915 11.1223 14.0952 9.50192C16.5989 7.8815 19.5177 7.01938 22.5 7.01938C25.4823 7.01938 28.4011 7.8815 30.9048 9.50192C33.4085 11.1223 35.3904 13.432 36.6119 16.1527C37.8333 18.8734 38.2422 21.8893 37.7894 24.837C37.3365 27.7848 36.0412 30.5388 34.0594 32.7674Z" fill="#262626"/>
</svg>
